<svg width="17" height="18" viewBox="0 0 17 18" fill="none" xmlns="http://www.w3.org/2000/svg">
<g clip-path="url(#clip0_1_24)">
<path fill-rule="evenodd" clip-rule="evenodd" d="M3.46938 12.7226L4.60802 13.9346L1.19209 17.5714L0.0526428 16.3594L3.46938 12.7226ZM9.71581 12.4286C7.05199 12.4286 4.88422 10.1211 4.88422 7.28571C4.88422 4.44943 7.05199 2.14286 9.71581 2.14286C12.3804 2.14286 14.5474 4.44943 14.5474 7.28571C14.5474 10.1211 12.3804 12.4286 9.71581 12.4286ZM9.71581 0.42857C6.15815 0.42857 3.27369 3.49886 3.27369 7.28571C3.27369 11.0726 6.15815 14.1429 9.71581 14.1429C13.2743 14.1429 16.1579 11.0726 16.1579 7.28571C16.1579 3.49886 13.2743 0.42857 9.71581 0.42857Z" fill="black"/>
</g>
<defs>
<clipPath id="clip0_1_24">
<rect width="16.1053" height="18" fill="white" transform="translate(0.0526428)"/>
</clipPath>
</defs>
</svg>
