<svg width="26" height="28" viewBox="0 0 26 28" fill="none" xmlns="http://www.w3.org/2000/svg">
<path d="M4.52594 16.699V11.3103C4.52594 9.33038 4.52594 9.33038 6.40907 8.06958L11.5877 5.0997C12.3692 4.65141 13.6403 4.65141 14.4124 5.0997L19.591 8.06958C21.4741 9.33038 21.4741 9.33038 21.4741 11.301V16.699C21.4741 18.6696 21.4741 18.6696 19.591 19.9304L14.4124 22.9003C13.6403 23.3486 12.3692 23.3486 11.5877 22.9003L6.40907 19.9304C4.52594 18.6696 4.52594 18.6696 4.52594 16.699Z" stroke="black" stroke-width="2" stroke-linecap="round" stroke-linejoin="round"/>
<path d="M13.0066 13.1286C13.3825 13.1286 13.6872 13.4668 13.6872 13.8839C13.6872 14.3011 13.3825 14.6392 13.0066 14.6392C12.6306 14.6392 12.3259 14.3011 12.3259 13.8839C12.3259 13.4668 12.6306 13.1286 13.0066 13.1286Z" stroke="black" stroke-width="5" stroke-linecap="round" stroke-linejoin="round"/>
</svg>
