<svg width="20" height="20" viewBox="0 0 20 20" fill="none" xmlns="http://www.w3.org/2000/svg">
<g clip-path="url(#clip0_1_52)">
<path d="M18.3203 8.33333C18.2894 7.24078 18.1855 6.54421 17.8355 5.94978C17.3377 5.10436 16.4412 4.63388 14.6481 3.69293L12.9814 2.81831C11.5184 2.05055 10.7869 1.66667 9.99999 1.66667C9.21307 1.66667 8.48157 2.05055 7.01856 2.81831L5.3519 3.69293C3.55885 4.63388 2.66231 5.10436 2.16449 5.94978C1.66666 6.79521 1.66666 7.84722 1.66666 9.95125V10.0488C1.66666 12.1528 1.66666 13.2048 2.16449 14.0503C2.66231 14.8957 3.55885 15.3661 5.3519 16.3071L7.01856 17.1817C8.48157 17.9494 9.21307 18.3333 9.99999 18.3333C10.7869 18.3333 11.5184 17.9494 12.9814 17.1817L14.6481 16.3071C16.4412 15.3661 17.3377 14.8957 17.8355 14.0503C18.1855 13.4558 18.2894 12.7593 18.3203 11.6667" stroke="black" stroke-width="2" stroke-linecap="round"/>
<path d="M17.5 6.25L14.1667 7.91667M14.1667 7.91667C14.1667 7.91667 13.9127 8.04364 13.75 8.125C12.2855 8.85725 10 10 10 10M14.1667 7.91667V10.8333M14.1667 7.91667L6.25 3.75M10 10L2.5 6.25M10 10V17.9167" stroke="black" stroke-width="2" stroke-linecap="round"/>
</g>
<defs>
<clipPath id="clip0_1_52">
<rect width="20" height="20" fill="white"/>
</clipPath>
</defs>
</svg>
