<svg width="30" height="30" viewBox="0 0 30 30" fill="none" xmlns="http://www.w3.org/2000/svg">
<rect width="30" height="30" rx="15" fill="#616161"/>
<path fill-rule="evenodd" clip-rule="evenodd" d="M10.3125 11.25C10.3125 8.66116 12.4112 6.5625 15 6.5625C17.5889 6.5625 19.6875 8.66116 19.6875 11.25C19.6875 13.8389 17.5889 15.9375 15 15.9375C12.4112 15.9375 10.3125 13.8389 10.3125 11.25ZM15 8.4375C13.4467 8.4375 12.1875 9.6967 12.1875 11.25C12.1875 12.8032 13.4467 14.0625 15 14.0625C16.5532 14.0625 17.8125 12.8032 17.8125 11.25C17.8125 9.6967 16.5532 8.4375 15 8.4375Z" fill="#030304"/>
<path fill-rule="evenodd" clip-rule="evenodd" d="M1.5625 15C1.5625 7.57867 7.57867 1.5625 15 1.5625C22.4214 1.5625 28.4375 7.57867 28.4375 15C28.4375 22.4214 22.4214 28.4375 15 28.4375C7.57867 28.4375 1.5625 22.4214 1.5625 15ZM15 3.4375C8.61421 3.4375 3.4375 8.61421 3.4375 15C3.4375 18.182 4.72284 21.0637 6.80262 23.1544C7.02812 21.938 7.47117 20.7911 8.36046 19.8689C9.69065 18.4894 11.8177 17.8125 15 17.8125C18.1821 17.8125 20.3092 18.4894 21.6394 19.8689C22.5287 20.7911 22.9717 21.9381 23.1972 23.1545C25.2771 21.0639 26.5625 18.182 26.5625 15C26.5625 8.61421 21.3857 3.4375 15 3.4375ZM21.4921 24.5692C21.3647 23.0544 21.0357 21.9441 20.2897 21.1704C19.4779 20.3285 17.9736 19.6875 15 19.6875C12.0262 19.6875 10.522 20.3285 9.71019 21.1704C8.96409 21.9441 8.63514 23.0542 8.50777 24.5691C10.3585 25.8272 12.5934 26.5625 15 26.5625C17.4065 26.5625 19.6414 25.8272 21.4921 24.5692Z" fill="#030304"/>
</svg>
